<?xml version="1.0" standalone="no"?>
<!DOCTYPE svg PUBLIC "-//W3C//DTD SVG 20010904//EN"
 "http://www.w3.org/TR/2001/REC-SVG-20010904/DTD/svg10.dtd">
<svg version="1.0" xmlns="http://www.w3.org/2000/svg"
 width="1200.000000pt" height="1200.000000pt" viewBox="0 0 1200.000000 1200.000000"
 preserveAspectRatio="xMidYMid meet">
<metadata>
Created by potrace 1.14, written by Peter Selinger 2001-2017
</metadata>
<g transform="translate(0.000000,1200.000000) scale(0.100000,-0.100000)"
fill="#000000" stroke="none">
<path d="M5938 9545 c-2 -1 -28 -5 -58 -8 -66 -8 -120 -17 -140 -25 -20 -7
-21 -7 -53 -17 -69 -19 -194 -95 -180 -108 3 -4 0 -7 -8 -7 -13 0 -29 -16
-101 -102 -10 -11 -15 -25 -11 -31 3 -6 1 -7 -5 -3 -7 4 -13 2 -13 -3 -1 -6
-2 -16 -3 -21 0 -6 -8 -15 -16 -20 -8 -5 -11 -10 -6 -10 5 0 4 -6 -2 -13 -13
-15 3 -87 18 -87 6 0 10 -8 10 -18 0 -10 9 -28 19 -39 11 -12 18 -23 15 -26
-2 -2 2 -10 11 -17 8 -7 15 -16 15 -21 0 -10 72 -132 83 -140 5 -3 8 -9 8 -13
-1 -3 0 -8 0 -11 1 -3 3 -9 4 -15 1 -5 3 -11 4 -12 1 -2 4 -19 6 -38 3 -19 7
-46 10 -60 11 -52 14 -95 7 -105 -4 -5 -45 -11 -92 -11 -74 -1 -117 -4 -250
-19 -14 -1 -25 -3 -25 -5 0 -1 -18 -3 -40 -5 -50 -5 -110 -13 -110 -15 0 -1
-11 -3 -25 -5 -22 -2 -53 -7 -125 -20 -11 -2 -33 -6 -50 -9 -16 -2 -46 -8 -65
-11 -19 -4 -41 -8 -47 -8 -7 0 -13 -4 -13 -7 0 -4 -12 -8 -27 -8 -24 0 -55 -5
-73 -12 -3 -1 -9 -3 -15 -5 -5 -1 -12 -3 -15 -4 -3 -2 -12 -4 -20 -6 -8 -2
-26 -7 -40 -10 -14 -4 -31 -7 -37 -7 -7 -1 -13 -5 -13 -10 0 -5 -4 -6 -10 -3
-5 3 -19 1 -31 -5 -11 -7 -33 -14 -47 -16 -15 -3 -31 -9 -38 -15 -6 -5 -14 -6
-17 -2 -4 3 -7 0 -7 -7 0 -7 -3 -11 -6 -7 -4 3 -21 -1 -38 -10 -17 -10 -33
-18 -36 -18 -26 -7 -60 -27 -60 -35 0 -6 -4 -8 -10 -5 -5 3 -10 1 -10 -4 0 -6
-4 -10 -9 -9 -5 2 -17 -6 -26 -17 -9 -11 -13 -13 -10 -5 4 8 -20 -14 -54 -49
-58 -60 -98 -117 -93 -133 1 -5 -2 -8 -8 -8 -5 0 -10 -8 -10 -18 0 -10 -3 -22
-7 -26 -4 -3 -8 -12 -9 -19 -1 -7 -5 -25 -8 -42 -13 -72 -4 -181 19 -227 7
-16 9 -26 4 -23 -5 4 -4 -5 3 -19 6 -14 15 -26 20 -26 4 0 7 -3 7 -7 -1 -5 0
-10 1 -13 6 -15 6 -59 -1 -55 -4 3 -13 0 -21 -7 -7 -7 -20 -14 -28 -16 -8 -2
-18 -8 -21 -14 -3 -5 -10 -9 -15 -9 -17 1 -44 -10 -44 -20 0 -5 -7 -9 -15 -9
-8 0 -15 -5 -15 -11 0 -5 -4 -8 -9 -4 -5 3 -16 0 -23 -7 -17 -16 -42 -32 -90
-58 -21 -11 -38 -25 -38 -30 0 -6 -6 -9 -12 -8 -7 2 -12 -3 -10 -10 1 -6 -1
-11 -5 -11 -20 3 -34 -2 -28 -11 3 -5 -5 -12 -19 -16 -14 -3 -28 -15 -32 -26
-3 -11 -8 -17 -11 -14 -14 13 -252 -260 -246 -282 1 -4 -6 -16 -16 -27 -9 -11
-23 -29 -31 -39 -13 -18 -13 -19 0 -11 8 4 5 -2 -7 -14 -13 -12 -23 -28 -23
-36 0 -8 -5 -15 -11 -15 -6 0 -9 -7 -5 -15 3 -8 1 -15 -4 -15 -5 0 -11 -9 -15
-20 -5 -16 -10 -18 -31 -8 -13 6 -24 14 -24 18 0 4 -16 15 -35 26 -19 10 -35
22 -35 26 0 5 -5 8 -10 8 -6 0 -20 9 -32 20 -12 10 -26 16 -32 13 -6 -3 -8 -3
-4 2 4 4 -19 27 -50 52 -71 54 -130 103 -148 121 -8 7 -14 11 -14 9 0 -3 -22
17 -50 44 -27 27 -50 47 -50 45 0 -3 -64 59 -143 137 -79 78 -141 145 -139
150 2 4 -5 7 -14 7 -10 0 -15 3 -11 6 8 8 -34 54 -50 54 -8 0 -12 4 -9 9 3 5
-9 20 -26 35 -18 14 -29 26 -25 26 4 0 -12 20 -35 45 -64 66 -88 96 -88 106 0
6 -4 7 -10 4 -6 -3 -10 1 -10 10 0 9 -5 13 -10 10 -5 -3 -10 -1 -10 4 0 12
-19 37 -62 82 -15 16 -25 29 -22 29 2 0 -8 12 -23 28 -16 15 -30 30 -31 35 -1
4 -4 6 -7 5 -2 -2 -11 6 -19 17 -10 14 -24 19 -52 17 -36 -2 -79 -8 -79 -12 0
-1 -13 -3 -30 -5 -16 -2 -41 -6 -55 -10 -14 -3 -41 -9 -60 -11 -56 -9 -75 -12
-75 -14 0 -1 -11 -4 -25 -6 -35 -4 -75 -12 -75 -15 0 -1 -9 -3 -20 -4 -25 -3
-81 -13 -120 -21 -16 -3 -39 -7 -50 -9 -11 -1 -20 -3 -20 -5 0 -1 -11 -3 -25
-4 -14 -2 -41 -7 -60 -11 -19 -5 -42 -9 -50 -10 -8 -2 -28 -5 -45 -8 -16 -4
-43 -9 -60 -11 -16 -3 -41 -8 -55 -11 -14 -3 -40 -8 -59 -11 -18 -3 -43 -8
-55 -10 -11 -2 -34 -7 -51 -10 -16 -3 -32 -10 -36 -15 -3 -6 -9 -10 -13 -9
-13 2 -31 -25 -34 -50 -2 -14 -5 -35 -7 -47 -2 -13 1 -23 6 -23 6 0 31 -20 56
-45 39 -40 54 -48 79 -44 4 0 10 -4 13 -9 3 -6 13 -12 20 -14 8 -2 23 -10 33
-18 10 -8 22 -15 26 -15 4 -1 17 -6 29 -13 13 -7 23 -9 23 -5 0 4 4 3 8 -3 4
-5 25 -21 47 -34 22 -13 50 -32 62 -43 13 -11 23 -18 23 -15 0 4 13 -6 28 -20
71 -67 106 -97 114 -95 4 2 7 0 5 -5 -2 -7 40 -56 108 -127 17 -17 36 -43 44
-58 8 -14 19 -24 24 -20 6 3 7 1 3 -5 -3 -6 4 -20 16 -31 12 -12 18 -21 13
-21 -4 0 2 -9 15 -20 13 -11 20 -20 16 -20 -3 0 0 -13 9 -30 9 -16 20 -30 26
-30 6 0 8 -4 5 -8 -3 -5 2 -21 9 -36 18 -34 45 -111 52 -146 2 -13 8 -29 14
-36 5 -6 7 -13 4 -15 -2 -3 1 -23 7 -45 6 -21 13 -42 14 -46 1 -5 3 -11 4 -15
1 -5 2 -12 1 -17 -1 -4 4 -14 10 -22 6 -8 9 -14 5 -14 -3 0 0 -17 8 -37 12
-31 25 -78 30 -103 1 -3 5 -11 9 -17 5 -7 6 -13 3 -13 -3 0 1 -18 9 -39 7 -22
11 -42 8 -45 -4 -3 -2 -6 3 -6 5 0 11 -12 12 -27 1 -15 6 -29 10 -32 4 -3 9
-19 10 -35 1 -16 6 -34 12 -41 5 -6 7 -15 3 -18 -3 -4 -1 -7 6 -7 7 0 10 -4 6
-10 -3 -5 1 -25 9 -45 8 -19 12 -35 9 -35 -3 0 0 -6 6 -13 6 -8 8 -17 4 -20
-3 -4 -2 -7 4 -7 5 0 10 -6 11 -12 2 -26 12 -67 27 -102 8 -20 12 -36 9 -36
-4 0 -1 -7 6 -15 7 -8 9 -15 6 -15 -4 0 -1 -10 6 -22 7 -13 11 -29 10 -35 -2
-7 2 -13 7 -13 6 0 8 -7 5 -15 -4 -8 -1 -15 6 -15 6 0 9 -4 6 -9 -4 -5 -1 -22
6 -38 6 -15 12 -31 13 -35 2 -5 4 -10 5 -13 1 -3 4 -9 5 -15 1 -5 4 -12 5 -15
1 -3 3 -8 4 -12 13 -49 40 -129 45 -133 3 -3 7 -12 9 -20 6 -34 77 -235 85
-241 4 -3 7 -10 6 -15 -1 -5 3 -22 9 -37 7 -16 22 -59 35 -95 12 -37 25 -69
30 -70 4 -2 5 -8 1 -13 -3 -5 -1 -9 4 -9 5 0 9 -6 9 -12 0 -7 7 -29 15 -48 9
-19 23 -53 31 -75 8 -22 25 -62 38 -90 12 -27 23 -56 25 -64 1 -7 7 -18 13
-24 6 -6 11 -19 11 -29 0 -10 4 -18 10 -18 5 0 13 -12 16 -27 4 -16 16 -39 28
-52 11 -13 14 -20 6 -16 -13 7 -13 6 0 -11 9 -10 22 -31 30 -46 7 -15 21 -36
31 -47 10 -10 16 -21 13 -23 -2 -3 7 -17 21 -32 13 -14 25 -30 25 -34 0 -4 14
-22 30 -39 15 -18 26 -33 23 -33 -3 0 0 -7 7 -15 7 -8 16 -12 21 -9 5 3 9 -1
9 -9 0 -14 49 -63 62 -62 4 0 14 -10 23 -22 16 -23 120 -86 142 -86 7 0 13 -3
13 -7 0 -18 149 -32 199 -19 8 2 23 -12 35 -36 12 -22 25 -43 29 -46 5 -3 8
-9 7 -13 -3 -13 24 -76 33 -76 4 0 5 -5 2 -10 -3 -6 -1 -10 5 -10 6 0 9 -4 5
-9 -3 -5 1 -15 8 -23 7 -7 15 -17 16 -23 10 -32 21 -54 31 -60 5 -3 8 -11 5
-16 -4 -5 -3 -9 2 -9 4 0 19 -24 33 -54 13 -30 28 -52 32 -50 5 3 8 -2 8 -12
0 -9 8 -23 18 -31 9 -8 10 -11 3 -7 -17 8 24 -53 49 -74 8 -8 9 -10 2 -7 -11
6 -11 3 0 -14 7 -12 16 -21 20 -21 5 0 8 -6 8 -14 0 -8 7 -17 16 -20 8 -3 12
-10 9 -16 -3 -5 -1 -10 4 -10 6 0 11 -6 11 -14 0 -8 3 -16 8 -18 4 -1 22 -23
41 -48 19 -25 48 -57 64 -72 16 -16 27 -28 23 -28 -3 0 13 -17 36 -37 23 -21
45 -37 50 -35 4 1 7 -1 6 -5 -2 -5 1 -8 5 -8 5 0 13 -7 18 -17 16 -29 209
-146 232 -140 4 1 7 -3 7 -9 0 -5 5 -7 10 -4 6 3 10 1 10 -5 0 -7 6 -10 14 -7
10 4 19 -4 28 -23 7 -16 16 -26 20 -24 4 3 8 -1 8 -8 0 -19 42 -100 60 -116 8
-7 9 -11 3 -7 -9 4 -11 1 -7 -9 3 -9 10 -16 15 -16 5 0 9 -6 9 -13 0 -7 18
-33 40 -57 22 -25 40 -49 40 -53 0 -5 4 -5 10 -2 6 3 10 -2 10 -11 0 -10 3
-14 7 -11 3 4 13 -2 20 -13 8 -11 19 -17 25 -14 7 4 8 2 4 -5 -4 -6 0 -14 11
-18 10 -4 20 -10 23 -13 6 -8 93 -63 100 -63 3 -1 11 -7 18 -14 7 -7 20 -13
28 -13 8 0 14 -5 14 -10 0 -6 3 -9 8 -8 4 1 17 -3 28 -10 12 -6 24 -8 28 -5 3
3 6 1 6 -5 0 -10 38 -28 53 -24 4 1 7 -3 7 -8 0 -6 6 -10 13 -9 6 1 26 -3 42
-11 17 -7 39 -16 50 -20 11 -4 33 -13 48 -19 16 -6 33 -9 38 -6 5 4 9 1 9 -5
0 -6 4 -9 9 -5 5 3 13 0 16 -6 4 -5 13 -8 21 -5 8 3 14 0 14 -6 0 -6 3 -9 6
-6 3 4 21 0 40 -8 19 -8 34 -11 34 -8 0 4 7 1 15 -6 9 -7 18 -10 22 -7 3 4 12
2 20 -4 7 -6 13 -8 13 -5 0 4 8 2 19 -3 17 -9 56 -19 106 -26 11 -2 20 -4 20
-5 0 -2 33 -10 100 -24 11 -2 31 -7 45 -10 14 -3 37 -8 53 -11 15 -3 37 -7 50
-10 41 -8 106 -18 202 -30 17 -2 30 -4 30 -5 0 -1 14 -4 30 -5 17 -2 59 -6 95
-10 260 -28 692 -15 960 29 14 2 45 7 70 10 55 8 85 14 85 16 0 1 11 3 25 6
14 2 36 7 50 11 14 3 29 5 34 4 5 -1 16 1 25 5 9 4 23 8 31 10 47 8 76 16 85
23 5 4 17 7 25 6 8 -1 23 3 33 8 17 8 30 11 86 23 13 3 36 11 51 19 15 8 30
12 32 9 3 -2 20 2 39 9 19 8 43 18 54 22 11 4 25 9 30 10 6 0 17 4 25 7 8 4
40 14 70 23 30 10 59 21 65 26 5 5 14 9 21 9 6 0 29 8 50 17 22 9 46 18 54 19
8 2 16 8 18 14 2 5 7 8 12 5 5 -3 16 3 26 12 10 10 18 16 18 14 2 -8 46 11 46
20 0 5 6 9 13 9 34 0 178 165 160 184 -4 3 -2 6 4 6 9 0 48 53 62 85 2 5 12
18 22 29 10 10 16 23 13 27 -2 4 3 12 12 17 12 7 18 24 19 53 1 42 4 45 46 66
24 12 49 26 54 30 6 5 13 10 17 11 26 7 78 37 78 44 0 5 5 6 10 3 6 -3 10 -1
10 4 0 6 5 11 10 11 14 0 123 72 133 88 5 7 12 10 17 7 5 -3 15 4 23 15 7 11
17 17 20 13 4 -3 7 -1 7 5 0 7 5 12 11 12 7 0 22 11 35 25 13 14 27 26 31 28
5 1 7 5 6 10 -2 4 3 7 10 7 18 0 190 186 196 212 1 4 15 21 32 39 16 17 27 34
25 36 -3 3 6 17 20 31 13 15 25 30 25 34 1 5 2 12 3 16 0 5 9 16 19 26 9 10
17 23 17 30 0 7 8 24 19 37 10 13 16 31 13 39 -3 8 -1 12 3 8 5 -4 13 -4 19 1
9 8 68 19 124 23 6 1 12 5 12 10 0 5 4 7 9 3 5 -3 17 3 27 12 10 10 18 17 18
15 1 -2 12 1 26 7 22 10 40 20 74 43 73 48 301 280 289 292 -3 3 2 8 11 12 9
3 16 12 16 20 0 8 5 14 10 14 6 0 10 6 10 14 0 7 7 19 15 26 8 7 13 16 10 20
-3 4 2 11 11 14 9 4 14 9 10 13 -3 3 1 14 10 24 8 9 16 23 17 31 2 7 10 24 19
37 10 13 14 29 11 34 -3 6 -2 7 3 4 6 -3 16 3 23 15 10 16 10 19 -1 12 -7 -4
4 9 24 28 20 20 34 38 31 42 -4 3 -1 6 5 6 7 0 21 15 32 33 11 17 20 28 20 24
0 -5 7 -2 15 7 8 8 15 19 15 25 0 6 6 10 13 8 6 -1 11 4 10 10 -2 7 3 12 10
10 6 -1 11 4 10 10 -2 7 1 12 6 10 5 -1 17 7 26 18 9 11 13 13 10 5 -4 -8 8 1
27 20 19 19 41 36 49 38 7 2 16 8 17 13 2 5 8 9 13 9 6 0 19 9 31 20 12 11 28
20 35 20 7 0 13 4 13 8 0 5 18 17 40 27 22 10 40 23 40 28 0 6 3 7 6 4 4 -3
16 -1 28 5 11 7 24 12 28 13 4 0 18 9 30 20 13 11 26 19 31 17 4 -1 7 2 7 6 0
5 12 14 26 20 15 7 22 17 18 24 -4 6 -3 8 4 4 6 -3 14 -1 19 6 4 7 25 24 45
38 20 13 35 27 32 29 -2 2 6 9 19 16 12 6 20 18 19 26 -2 8 0 11 4 7 8 -9 110
82 106 95 -1 4 3 7 10 7 14 0 138 127 138 142 0 5 5 6 10 3 6 -3 10 -2 10 3 0
5 16 25 37 45 20 20 34 37 30 37 -3 0 7 13 21 29 43 47 57 65 55 73 -2 5 1 8
6 8 5 0 19 15 30 33 11 18 29 43 40 56 11 13 18 27 16 31 -3 4 2 11 11 14 8 3
12 10 9 16 -3 5 -2 10 3 10 8 0 66 96 67 110 0 3 4 11 8 18 5 6 5 12 0 12 -4
0 -2 4 5 9 7 4 14 15 16 23 1 9 7 22 12 29 9 11 32 84 40 122 1 4 3 9 4 12 1
3 3 13 4 23 1 9 5 27 9 38 4 12 10 41 13 65 3 24 7 62 10 84 6 52 6 247 0 304
-3 24 -8 62 -12 85 -3 23 -7 50 -9 61 -1 11 -6 36 -10 55 -4 19 -8 40 -9 47
-1 7 -5 15 -8 19 -4 3 -4 12 -1 20 3 8 1 14 -4 14 -5 0 -10 10 -10 23 -1 19
-8 53 -13 67 -1 3 -2 8 -1 13 0 4 -4 7 -11 7 -6 0 -9 3 -5 6 5 5 -20 88 -40
134 -3 8 -7 17 -8 20 -1 3 -8 19 -15 35 -7 17 -14 32 -14 35 -4 19 -32 70 -38
70 -4 0 -5 7 -2 15 4 8 1 15 -5 15 -6 0 -11 7 -11 15 0 9 -17 32 -37 52 -21
20 -31 33 -23 28 17 -9 -8 22 -53 67 -15 15 -25 28 -22 28 11 0 -19 26 -37 33
-10 3 -18 11 -18 17 0 15 -25 40 -39 40 -6 0 -10 6 -8 13 1 6 -4 11 -10 10 -7
-2 -12 3 -10 10 1 6 -3 11 -10 10 -6 -2 -15 6 -18 17 -4 11 -11 18 -16 15 -5
-4 -9 -2 -9 4 0 11 -141 119 -161 123 -8 2 -20 10 -27 18 -12 13 -13 13 -7 0
4 -10 2 -9 -8 2 -8 10 -17 15 -20 11 -4 -3 -7 -1 -7 5 0 10 -38 28 -52 24 -5
-1 -8 3 -8 8 0 6 -11 10 -23 10 -13 0 -27 3 -31 8 -4 4 -12 8 -17 8 -5 1 -10
2 -11 4 -4 2 -38 11 -73 17 -60 11 -360 5 -360 -7 0 -1 -9 -3 -20 -5 -11 -1
-40 -8 -65 -14 -25 -6 -54 -14 -64 -16 -11 -3 -24 -9 -29 -14 -5 -5 -16 -7
-23 -4 -8 3 -14 0 -14 -6 0 -6 -7 -8 -15 -5 -8 4 -15 1 -15 -5 0 -6 -3 -10 -7
-10 -5 1 -10 0 -13 -1 -3 -1 -12 -3 -20 -5 -33 -8 -110 -42 -106 -46 3 -3 -4
-6 -16 -6 -11 -1 -29 -10 -40 -20 -11 -10 -21 -17 -22 -15 -3 8 -56 -19 -56
-28 0 -6 -4 -9 -9 -5 -5 3 -16 -1 -24 -9 -8 -8 -17 -12 -21 -9 -3 3 -8 -2 -12
-11 -3 -9 -10 -14 -14 -11 -4 2 -32 -17 -62 -43 -30 -26 -72 -60 -92 -77 -21
-16 -46 -37 -57 -47 -11 -9 -30 -24 -42 -33 -12 -9 -16 -13 -8 -9 9 5 12 3 7
-5 -4 -6 -11 -9 -15 -6 -5 2 -19 -6 -32 -19 -13 -12 -43 -36 -66 -53 -23 -17
-39 -33 -36 -37 3 -3 2 -6 -3 -7 -5 0 -49 -3 -99 -6 -186 -12 -219 -10 -247
17 -32 31 -61 55 -70 58 -5 1 -21 16 -36 32 -16 16 -32 27 -35 23 -4 -3 -7 -1
-7 5 0 13 -113 102 -129 102 -6 0 -11 5 -11 10 0 6 -5 10 -11 10 -6 0 -25 11
-43 25 -18 14 -37 25 -43 25 -5 0 -19 8 -31 18 l-21 18 21 45 c24 53 48 117
54 144 14 65 16 85 16 130 0 78 -8 123 -27 151 -12 18 -13 24 -4 19 8 -3 7 -1
-2 7 -9 7 -14 19 -12 26 3 6 0 12 -6 12 -6 0 -11 6 -11 13 0 6 -25 37 -55 67
-30 29 -55 51 -55 47 0 -4 -9 2 -20 13 -12 12 -25 18 -30 15 -6 -4 -10 -2 -10
4 0 10 -38 27 -52 23 -5 -1 -8 2 -8 6 0 11 -51 35 -58 27 -3 -2 -11 0 -17 5
-16 13 -125 51 -125 43 0 -3 -7 0 -15 7 -8 6 -19 9 -24 6 -5 -4 -13 -1 -16 5
-4 5 -13 8 -21 5 -8 -3 -14 -1 -14 5 0 6 -8 9 -17 8 -10 -1 -21 0 -25 1 -5 1
-12 4 -18 5 -5 1 -11 3 -12 5 -2 1 -12 3 -23 5 -41 8 -91 17 -115 22 -14 3
-34 6 -45 8 -11 1 -36 5 -55 8 -56 11 -92 17 -140 23 -25 3 -61 8 -80 10 -45
6 -88 11 -170 19 -36 3 -87 8 -115 10 -121 12 -239 18 -352 19 -68 0 -124 4
-124 9 -2 12 -6 27 -9 32 -7 14 -5 52 3 63 6 7 7 15 4 18 -3 3 2 14 11 23 40
42 67 77 64 84 -1 5 2 6 7 3 5 -3 15 2 22 11 12 14 12 16 -1 8 -8 -4 -6 2 5
13 33 35 76 96 75 107 0 3 13 20 30 38 16 17 30 36 30 40 0 5 8 21 19 35 17
26 26 104 13 127 -3 5 -7 22 -9 37 -2 16 -10 42 -18 57 -8 16 -11 31 -8 35 4
3 1 6 -5 6 -7 0 -12 7 -12 15 0 29 -141 152 -161 140 -4 -3 -10 -1 -14 5 -4 6
-11 8 -16 5 -5 -4 -9 -2 -9 3 0 11 -94 36 -180 48 -19 3 -48 7 -65 10 -33 5
-282 13 -287 9z m-2478 -2339 c0 -2 -8 -10 -17 -17 -16 -13 -17 -12 -4 4 13
16 21 21 21 13z m6882 -8 c9 -1 14 -6 12 -10 -3 -4 3 -8 14 -8 11 0 31 -9 46
-21 14 -11 30 -17 36 -14 5 3 10 2 10 -4 0 -6 10 -15 21 -22 17 -9 20 -8 14 3
-3 7 -1 6 7 -3 7 -9 25 -22 39 -30 30 -16 81 -54 114 -86 13 -12 26 -19 29
-16 3 4 6 1 6 -5 0 -11 12 -26 75 -96 11 -12 21 -28 23 -36 2 -8 8 -16 13 -18
5 -2 9 -9 9 -17 0 -7 7 -18 15 -25 8 -7 14 -18 13 -24 -1 -6 5 -31 13 -56 16
-53 21 -229 6 -248 -5 -7 -7 -15 -4 -19 4 -3 2 -12 -3 -19 -6 -6 -10 -16 -8
-20 1 -5 -3 -18 -9 -29 -6 -11 -9 -28 -8 -37 2 -10 -1 -18 -5 -18 -5 0 -7 -9
-5 -20 2 -11 -1 -20 -7 -20 -5 0 -8 -6 -5 -14 3 -8 2 -16 -3 -18 -5 -2 -12
-16 -15 -33 -7 -33 -12 -57 -15 -65 -1 -3 -2 -8 -1 -12 0 -5 -3 -8 -7 -8 -5 0
-9 -6 -9 -12 -1 -22 -8 -43 -16 -49 -4 -3 -9 -16 -10 -27 -1 -12 -5 -22 -9
-22 -4 0 -7 -3 -7 -7 1 -5 -4 -22 -10 -40 -7 -18 -12 -35 -12 -38 1 -3 -10
-22 -23 -42 -14 -20 -23 -40 -20 -45 3 -4 0 -8 -5 -8 -6 0 -11 -6 -11 -14 0
-7 -7 -19 -15 -26 -8 -7 -15 -21 -15 -32 0 -10 -4 -16 -10 -13 -5 3 -10 1 -10
-5 0 -13 -76 -117 -107 -146 -12 -12 -19 -24 -15 -28 4 -4 2 -6 -5 -4 -6 1
-42 -28 -79 -67 -38 -38 -71 -69 -74 -69 -3 1 -4 -2 -2 -8 1 -5 -2 -7 -7 -4
-5 4 -14 -2 -20 -11 -6 -10 -11 -14 -11 -9 0 5 -14 -6 -31 -25 -18 -19 -29
-27 -25 -19 5 9 2 8 -7 -2 -8 -10 -20 -18 -26 -18 -7 0 -9 -4 -6 -10 3 -5 -1
-10 -9 -10 -9 0 -16 -5 -16 -11 0 -5 -4 -8 -8 -5 -5 3 -23 -8 -40 -24 -18 -16
-32 -27 -32 -24 0 3 -20 -9 -44 -26 -25 -16 -49 -30 -55 -30 -6 0 -11 -4 -11
-8 0 -5 -20 -19 -45 -31 -25 -12 -45 -27 -45 -33 0 -6 -3 -8 -6 -5 -4 4 -19
-2 -33 -12 -14 -10 -36 -22 -48 -25 -13 -4 -23 -11 -23 -15 0 -4 -18 -16 -40
-26 -22 -10 -40 -22 -40 -27 0 -4 -7 -8 -15 -8 -8 0 -23 -8 -34 -19 -10 -10
-30 -21 -45 -25 -15 -4 -24 -11 -21 -15 9 -16 -42 -5 -113 25 l-70 28 6 91 c7
114 6 339 -2 475 -6 102 -9 130 -21 235 -3 28 -8 64 -9 80 -7 60 -17 118 -21
124 -6 10 6 24 43 50 17 12 32 29 32 37 0 8 5 12 10 9 6 -3 10 1 10 9 0 9 4
16 9 16 10 0 40 59 49 98 8 36 7 123 -2 192 -9 61 -11 316 -4 340 3 8 10 26
15 40 6 14 8 29 5 34 -3 5 0 6 6 2 7 -4 12 -2 12 3 0 6 8 20 18 30 9 10 26 30
37 44 12 13 31 29 43 36 13 7 20 16 17 22 -4 5 0 9 8 9 8 0 26 11 41 25 15 14
31 23 36 20 4 -3 11 2 14 10 3 8 9 14 13 13 8 -2 64 23 73 32 3 3 10 6 15 7
33 8 141 49 143 56 2 4 12 7 23 7 10 0 19 5 19 12 0 6 3 9 6 5 4 -3 22 0 40 8
19 8 34 11 34 8 0 -3 7 0 15 7 8 7 15 10 15 7 0 -4 10 -3 23 2 19 7 149 7 199
-1z m98 -1642 c0 -2 -8 -10 -17 -17 -16 -13 -17 -12 -4 4 13 16 21 21 21 13z"/>
</g>
</svg>
